<?xml version="1.0" encoding="utf-8" standalone="no"?>
<!DOCTYPE svg PUBLIC "-//W3C//DTD SVG 1.1//EN"
  "http://www.w3.org/Graphics/SVG/1.1/DTD/svg11.dtd">
<svg xmlns:xlink="http://www.w3.org/1999/xlink" width="345.6pt" height="216pt" viewBox="0 0 345.6 216" xmlns="http://www.w3.org/2000/svg" version="1.1">
 <metadata>
  <rdf:RDF xmlns:dc="http://purl.org/dc/elements/1.1/" xmlns:cc="http://creativecommons.org/ns#" xmlns:rdf="http://www.w3.org/1999/02/22-rdf-syntax-ns#">
   <cc:Work>
    <dc:type rdf:resource="http://purl.org/dc/dcmitype/StillImage"/>
    <dc:format>image/svg+xml</dc:format>
    <dc:creator>
     <cc:Agent>
      <dc:title>Matplotlib v3.10.9, https://matplotlib.org/</dc:title>
     </cc:Agent>
    </dc:creator>
   </cc:Work>
  </rdf:RDF>
 </metadata>
 <defs>
  <style type="text/css">*{stroke-linejoin: round; stroke-linecap: butt}</style>
 </defs>
 <g id="figure_1">
  <g id="patch_1">
   <path d="M 0 216 
L 345.6 216 
L 345.6 0 
L 0 0 
z
" style="fill: #ffffff"/>
  </g>
  <g id="axes_1">
   <g id="patch_2">
    <path d="M 96.768 181.44 
L 331.776 181.44 
L 331.776 12.96 
L 96.768 12.96 
z
" style="fill: #ffffff"/>
   </g>
   <g id="patch_3">
    <path d="M 96.768 20.618182 
L 331.776 20.618182 
L 331.776 27.247132 
L 96.768 27.247132 
z
" clip-path="url(#p88b26cc201)" style="fill: #d55e00"/>
   </g>
   <g id="patch_4">
    <path d="M 96.768 38.062787 
L 316.1088 38.062787 
L 316.1088 44.691737 
L 96.768 44.691737 
z
" clip-path="url(#p88b26cc201)" style="fill: #d55e00"/>
   </g>
   <g id="patch_5">
    <path d="M 96.768 55.507393 
L 104.6016 55.507393 
L 104.6016 62.136343 
L 96.768 62.136343 
z
" clip-path="url(#p88b26cc201)" style="fill: #d55e00"/>
   </g>
   <g id="patch_6">
    <path d="M 96.768 72.951998 
L 323.9424 72.951998 
L 323.9424 79.580948 
L 96.768 79.580948 
z
" clip-path="url(#p88b26cc201)" style="fill: #d55e00"/>
   </g>
   <g id="patch_7">
    <path d="M 96.768 90.396604 
L 331.776 90.396604 
L 331.776 97.025554 
L 96.768 97.025554 
z
" clip-path="url(#p88b26cc201)" style="fill: #d55e00"/>
   </g>
   <g id="patch_8">
    <path d="M 96.768 107.841209 
L 331.776 107.841209 
L 331.776 114.470159 
L 96.768 114.470159 
z
" clip-path="url(#p88b26cc201)" style="fill: #d55e00"/>
   </g>
   <g id="patch_9">
    <path d="M 96.768 125.285815 
L 331.776 125.285815 
L 331.776 131.914765 
L 96.768 131.914765 
z
" clip-path="url(#p88b26cc201)" style="fill: #d55e00"/>
   </g>
   <g id="patch_10">
    <path d="M 96.768 142.73042 
L 323.9424 142.73042 
L 323.9424 149.35937 
L 96.768 149.35937 
z
" clip-path="url(#p88b26cc201)" style="fill: #d55e00"/>
   </g>
   <g id="patch_11">
    <path d="M 96.768 160.175026 
L 331.776 160.175026 
L 331.776 166.803976 
L 96.768 166.803976 
z
" clip-path="url(#p88b26cc201)" style="fill: #d55e00"/>
   </g>
   <g id="patch_12">
    <path d="M 96.768 27.596024 
L 331.776 27.596024 
L 331.776 34.224974 
L 96.768 34.224974 
z
" clip-path="url(#p88b26cc201)" style="fill: #0072b2"/>
   </g>
   <g id="patch_13">
    <path d="M 96.768 45.04063 
L 331.776 45.04063 
L 331.776 51.66958 
L 96.768 51.66958 
z
" clip-path="url(#p88b26cc201)" style="fill: #0072b2"/>
   </g>
   <g id="patch_14">
    <path d="M 96.768 62.485235 
L 331.776 62.485235 
L 331.776 69.114185 
L 96.768 69.114185 
z
" clip-path="url(#p88b26cc201)" style="fill: #0072b2"/>
   </g>
   <g id="patch_15">
    <path d="M 96.768 79.929841 
L 331.776 79.929841 
L 331.776 86.558791 
L 96.768 86.558791 
z
" clip-path="url(#p88b26cc201)" style="fill: #0072b2"/>
   </g>
   <g id="patch_16">
    <path d="M 96.768 97.374446 
L 331.776 97.374446 
L 331.776 104.003396 
L 96.768 104.003396 
z
" clip-path="url(#p88b26cc201)" style="fill: #0072b2"/>
   </g>
   <g id="patch_17">
    <path d="M 96.768 114.819052 
L 331.776 114.819052 
L 331.776 121.448002 
L 96.768 121.448002 
z
" clip-path="url(#p88b26cc201)" style="fill: #0072b2"/>
   </g>
   <g id="patch_18">
    <path d="M 96.768 132.263657 
L 331.776 132.263657 
L 331.776 138.892607 
L 96.768 138.892607 
z
" clip-path="url(#p88b26cc201)" style="fill: #0072b2"/>
   </g>
   <g id="patch_19">
    <path d="M 96.768 149.708263 
L 331.776 149.708263 
L 331.776 156.337213 
L 96.768 156.337213 
z
" clip-path="url(#p88b26cc201)" style="fill: #0072b2"/>
   </g>
   <g id="patch_20">
    <path d="M 96.768 167.152868 
L 331.776 167.152868 
L 331.776 173.781818 
L 96.768 173.781818 
z
" clip-path="url(#p88b26cc201)" style="fill: #0072b2"/>
   </g>
   <g id="matplotlib.axis_1">
    <g id="xtick_1">
     <g id="line2d_1">
      <defs>
       <path id="m63a42a9cc2" d="M 0 0 
L 0 3.5 
" style="stroke: #000000; stroke-width: 0.8"/>
      </defs>
      <g>
       <use xlink:href="#m63a42a9cc2" x="96.768" y="181.44" style="stroke: #000000; stroke-width: 0.8"/>
      </g>
     </g>
     <g id="text_1">
      <text style="font-size: 6px; font-family: 'DejaVu Sans'; text-anchor: middle" x="96.768" y="192.999063" transform="rotate(-0 96.768 192.999063)">0.0</text>
     </g>
    </g>
    <g id="xtick_2">
     <g id="line2d_2">
      <g>
       <use xlink:href="#m63a42a9cc2" x="143.7696" y="181.44" style="stroke: #000000; stroke-width: 0.8"/>
      </g>
     </g>
     <g id="text_2">
      <text style="font-size: 6px; font-family: 'DejaVu Sans'; text-anchor: middle" x="143.7696" y="192.999063" transform="rotate(-0 143.7696 192.999063)">0.2</text>
     </g>
    </g>
    <g id="xtick_3">
     <g id="line2d_3">
      <g>
       <use xlink:href="#m63a42a9cc2" x="190.7712" y="181.44" style="stroke: #000000; stroke-width: 0.8"/>
      </g>
     </g>
     <g id="text_3">
      <text style="font-size: 6px; font-family: 'DejaVu Sans'; text-anchor: middle" x="190.7712" y="192.999063" transform="rotate(-0 190.7712 192.999063)">0.4</text>
     </g>
    </g>
    <g id="xtick_4">
     <g id="line2d_4">
      <g>
       <use xlink:href="#m63a42a9cc2" x="237.7728" y="181.44" style="stroke: #000000; stroke-width: 0.8"/>
      </g>
     </g>
     <g id="text_4">
      <text style="font-size: 6px; font-family: 'DejaVu Sans'; text-anchor: middle" x="237.7728" y="192.999063" transform="rotate(-0 237.7728 192.999063)">0.6</text>
     </g>
    </g>
    <g id="xtick_5">
     <g id="line2d_5">
      <g>
       <use xlink:href="#m63a42a9cc2" x="284.7744" y="181.44" style="stroke: #000000; stroke-width: 0.8"/>
      </g>
     </g>
     <g id="text_5">
      <text style="font-size: 6px; font-family: 'DejaVu Sans'; text-anchor: middle" x="284.7744" y="192.999063" transform="rotate(-0 284.7744 192.999063)">0.8</text>
     </g>
    </g>
    <g id="xtick_6">
     <g id="line2d_6">
      <g>
       <use xlink:href="#m63a42a9cc2" x="331.776" y="181.44" style="stroke: #000000; stroke-width: 0.8"/>
      </g>
     </g>
     <g id="text_6">
      <text style="font-size: 6px; font-family: 'DejaVu Sans'; text-anchor: middle" x="331.776" y="192.999063" transform="rotate(-0 331.776 192.999063)">1.0</text>
     </g>
    </g>
    <g id="text_7">
     <text style="font-size: 8px; font-family: 'DejaVu Sans'; text-anchor: middle" x="214.272" y="204.325625" transform="rotate(-0 214.272 204.325625)">FFCR</text>
    </g>
   </g>
   <g id="matplotlib.axis_2">
    <g id="ytick_1">
     <g id="line2d_7">
      <defs>
       <path id="me767228e3c" d="M 0 0 
L -3.5 0 
" style="stroke: #000000; stroke-width: 0.8"/>
      </defs>
      <g>
       <use xlink:href="#me767228e3c" x="96.768" y="27.421578" style="stroke: #000000; stroke-width: 0.8"/>
      </g>
     </g>
     <g id="text_8">
      <text style="font-size: 6px; font-family: 'DejaVu Sans'; text-anchor: end" x="89.768" y="29.701109" transform="rotate(-0 89.768 29.701109)">artifact-handoff</text>
     </g>
    </g>
    <g id="ytick_2">
     <g id="line2d_8">
      <g>
       <use xlink:href="#me767228e3c" x="96.768" y="44.866183" style="stroke: #000000; stroke-width: 0.8"/>
      </g>
     </g>
     <g id="text_9">
      <text style="font-size: 6px; font-family: 'DejaVu Sans'; text-anchor: end" x="89.768" y="47.145715" transform="rotate(-0 89.768 47.145715)">audit-reconstruction</text>
     </g>
    </g>
    <g id="ytick_3">
     <g id="line2d_9">
      <g>
       <use xlink:href="#me767228e3c" x="96.768" y="62.310789" style="stroke: #000000; stroke-width: 0.8"/>
      </g>
     </g>
     <g id="text_10">
      <text style="font-size: 6px; font-family: 'DejaVu Sans'; text-anchor: end" x="89.768" y="64.59032" transform="rotate(-0 89.768 64.59032)">branch/merge</text>
     </g>
    </g>
    <g id="ytick_4">
     <g id="line2d_10">
      <g>
       <use xlink:href="#me767228e3c" x="96.768" y="79.755394" style="stroke: #000000; stroke-width: 0.8"/>
      </g>
     </g>
     <g id="text_11">
      <text style="font-size: 6px; font-family: 'DejaVu Sans'; text-anchor: end" x="89.768" y="82.034926" transform="rotate(-0 89.768 82.034926)">superseded-policy</text>
     </g>
    </g>
    <g id="ytick_5">
     <g id="line2d_11">
      <g>
       <use xlink:href="#me767228e3c" x="96.768" y="97.2" style="stroke: #000000; stroke-width: 0.8"/>
      </g>
     </g>
     <g id="text_12">
      <text style="font-size: 6px; font-family: 'DejaVu Sans'; text-anchor: end" x="89.768" y="99.479531" transform="rotate(-0 89.768 99.479531)">sibling-branch</text>
     </g>
    </g>
    <g id="ytick_6">
     <g id="line2d_12">
      <g>
       <use xlink:href="#me767228e3c" x="96.768" y="114.644606" style="stroke: #000000; stroke-width: 0.8"/>
      </g>
     </g>
     <g id="text_13">
      <text style="font-size: 6px; font-family: 'DejaVu Sans'; text-anchor: end" x="89.768" y="116.924137" transform="rotate(-0 89.768 116.924137)">long-horizon-drift</text>
     </g>
    </g>
    <g id="ytick_7">
     <g id="line2d_13">
      <g>
       <use xlink:href="#me767228e3c" x="96.768" y="132.089211" style="stroke: #000000; stroke-width: 0.8"/>
      </g>
     </g>
     <g id="text_14">
      <text style="font-size: 6px; font-family: 'DejaVu Sans'; text-anchor: end" x="89.768" y="134.368742" transform="rotate(-0 89.768 134.368742)">pause/resume</text>
     </g>
    </g>
    <g id="ytick_8">
     <g id="line2d_14">
      <g>
       <use xlink:href="#me767228e3c" x="96.768" y="149.533817" style="stroke: #000000; stroke-width: 0.8"/>
      </g>
     </g>
     <g id="text_15">
      <text style="font-size: 6px; font-family: 'DejaVu Sans'; text-anchor: end" x="89.768" y="151.813348" transform="rotate(-0 89.768 151.813348)">private-summary</text>
     </g>
    </g>
    <g id="ytick_9">
     <g id="line2d_15">
      <g>
       <use xlink:href="#me767228e3c" x="96.768" y="166.978422" style="stroke: #000000; stroke-width: 0.8"/>
      </g>
     </g>
     <g id="text_16">
      <text style="font-size: 6px; font-family: 'DejaVu Sans'; text-anchor: end" x="89.768" y="169.257953" transform="rotate(-0 89.768 169.257953)">twin-run</text>
     </g>
    </g>
   </g>
   <g id="patch_21">
    <path d="M 96.768 181.44 
L 96.768 12.96 
" style="fill: none; stroke: #1a1a1a; stroke-width: 0.75; stroke-linejoin: miter; stroke-linecap: square"/>
   </g>
   <g id="patch_22">
    <path d="M 96.768 181.44 
L 331.776 181.44 
" style="fill: none; stroke: #1a1a1a; stroke-width: 0.75; stroke-linejoin: miter; stroke-linecap: square"/>
   </g>
   <g id="legend_1">
    <g id="patch_23">
     <path d="M 102.168 6.312187 
L 109.968 6.312187 
L 109.968 2.112187 
L 102.168 2.112187 
z
" style="fill: #d55e00"/>
    </g>
    <g id="text_17">
     <text style="font-size: 6px; font-family: 'DejaVu Sans'; text-anchor: start; fill: #1a1a1a" x="114.768" y="6.312187" transform="rotate(-0 114.768 6.312187)">C4</text>
    </g>
    <g id="patch_24">
     <path d="M 129.975188 6.312187 
L 137.775188 6.312187 
L 137.775188 2.112187 
L 129.975188 2.112187 
z
" style="fill: #0072b2"/>
    </g>
    <g id="text_18">
     <text style="font-size: 6px; font-family: 'DejaVu Sans'; text-anchor: start; fill: #1a1a1a" x="142.575187" y="6.312187" transform="rotate(-0 142.575187 6.312187)">C5/MBM-Core</text>
    </g>
   </g>
  </g>
 </g>
 <defs>
  <clipPath id="p88b26cc201">
   <rect x="96.768" y="12.96" width="235.008" height="168.48"/>
  </clipPath>
 </defs>
</svg>
